<svg id="svg" version="1.1" xmlns="http://www.w3.org/2000/svg" xmlns:xlink="http://www.w3.org/1999/xlink" width="400" height="400" viewBox="0, 0, 400,400"><g id="svgg"><path id="path0" d="M174.602 0.699 C 171.891 0.789,170.796 0.953,171.202 1.210 C 171.671 1.506,171.585 1.590,170.800 1.596 C 170.250 1.601,169.268 1.882,168.618 2.221 C 167.961 2.564,166.007 2.914,164.218 3.010 C 156.269 3.436,149.192 4.277,152.600 4.390 L 154.200 4.444 152.400 5.145 C 151.352 5.554,150.494 5.692,150.347 5.475 C 150.205 5.268,149.941 5.345,149.747 5.652 C 149.556 5.953,148.860 6.218,148.200 6.239 C 147.540 6.260,146.010 6.553,144.800 6.888 C 143.590 7.224,142.505 7.351,142.389 7.170 C 142.274 6.990,141.914 7.010,141.589 7.215 C 141.155 7.490,141.138 7.589,141.524 7.594 C 141.812 7.597,141.936 7.780,141.800 8.000 C 141.664 8.220,140.978 8.403,140.276 8.406 C 139.305 8.411,139.143 8.505,139.600 8.800 C 140.070 9.104,139.969 9.189,139.133 9.194 C 138.547 9.197,137.962 9.425,137.833 9.700 C 137.647 10.100,137.553 10.100,137.367 9.700 C 137.230 9.407,136.444 9.216,135.467 9.240 C 134.040 9.274,133.944 9.326,134.800 9.600 C 135.372 9.783,135.521 9.937,135.149 9.960 C 134.791 9.982,134.276 10.268,134.004 10.596 C 133.732 10.923,133.370 11.105,133.200 11.000 C 133.030 10.895,132.689 11.052,132.443 11.348 C 132.179 11.667,131.561 11.805,130.938 11.686 C 130.209 11.547,129.969 11.626,130.164 11.942 C 130.435 12.380,128.709 12.632,126.600 12.462 C 126.046 12.417,125.957 12.499,126.309 12.728 C 126.702 12.983,126.642 13.219,126.051 13.754 C 125.456 14.293,125.236 14.331,125.073 13.924 C 124.922 13.546,124.854 13.573,124.832 14.020 C 124.807 14.493,124.457 14.599,123.345 14.470 C 122.493 14.370,121.988 14.456,122.124 14.677 C 122.257 14.893,121.883 14.986,121.256 14.894 C 120.575 14.794,119.954 14.974,119.628 15.366 C 119.249 15.823,119.234 16.000,119.575 16.000 C 119.835 16.000,119.929 16.192,119.784 16.427 C 119.639 16.661,119.421 16.754,119.299 16.633 C 119.178 16.512,118.879 16.686,118.635 17.019 C 118.366 17.388,117.406 17.672,116.196 17.742 C 115.035 17.810,114.179 18.055,114.150 18.329 C 114.123 18.588,114.075 19.025,114.044 19.300 C 114.005 19.648,113.870 19.618,113.600 19.200 C 113.262 18.678,113.211 18.684,113.206 19.249 C 113.202 19.737,112.688 19.947,111.133 20.097 C 109.032 20.299,107.771 21.227,108.174 22.276 C 108.447 22.988,107.976 23.172,105.675 23.253 C 103.924 23.315,101.617 23.975,103.087 23.994 C 103.356 23.997,103.472 24.269,103.346 24.598 C 103.219 24.926,102.955 25.096,102.758 24.974 C 102.561 24.852,102.400 24.943,102.400 25.176 C 102.400 25.409,101.725 25.621,100.900 25.646 C 100.075 25.672,99.697 25.772,100.060 25.868 C 101.024 26.124,98.969 28.100,97.739 28.100 C 97.198 28.100,96.922 28.273,97.073 28.518 C 97.223 28.761,97.094 28.846,96.766 28.721 C 95.839 28.368,94.400 29.112,94.400 29.944 C 94.400 30.822,93.661 31.200,91.944 31.200 C 91.289 31.200,90.849 31.356,90.967 31.547 C 91.085 31.737,90.825 32.215,90.391 32.609 C 89.902 33.051,89.600 33.140,89.600 32.841 C 89.600 32.576,89.195 32.774,88.700 33.282 C 88.205 33.789,87.575 34.222,87.300 34.242 C 86.264 34.320,86.117 34.425,85.673 35.400 C 85.383 36.035,84.886 36.402,84.309 36.406 C 83.809 36.409,83.130 36.606,82.800 36.844 C 82.314 37.194,82.352 37.226,83.000 37.017 C 83.509 36.853,83.291 37.188,82.400 37.939 C 81.630 38.588,80.865 39.036,80.700 38.936 C 80.535 38.835,80.400 38.921,80.400 39.126 C 80.400 39.332,79.839 39.612,79.153 39.749 C 78.181 39.944,77.950 40.165,78.104 40.753 C 78.219 41.192,77.988 41.775,77.550 42.150 C 77.138 42.503,76.800 42.614,76.800 42.396 C 76.800 42.178,76.395 42.013,75.900 42.028 C 75.041 42.055,75.037 42.072,75.800 42.400 C 76.553 42.724,76.050 43.013,75.051 42.831 C 74.859 42.796,74.800 43.023,74.920 43.335 C 75.195 44.052,74.473 44.803,73.770 44.533 C 73.477 44.421,72.829 44.615,72.330 44.964 C 71.790 45.342,71.649 45.600,71.981 45.600 C 72.362 45.600,72.249 45.909,71.626 46.572 C 71.124 47.106,70.418 47.522,70.057 47.495 C 69.696 47.469,68.905 47.772,68.300 48.170 C 67.306 48.823,67.032 49.272,67.143 50.070 C 67.163 50.219,66.621 50.464,65.937 50.614 C 65.180 50.780,64.878 51.001,65.166 51.179 C 65.512 51.393,65.473 51.608,65.019 51.984 C 64.512 52.405,64.395 52.399,64.375 51.949 C 64.361 51.647,64.186 51.806,63.986 52.303 C 63.787 52.800,63.167 53.414,62.609 53.669 C 62.051 53.923,61.624 54.326,61.661 54.565 C 61.769 55.286,61.141 56.411,60.761 56.176 C 60.363 55.930,59.109 56.527,59.164 56.936 C 59.312 58.023,59.162 58.560,58.849 58.066 C 58.590 57.657,58.462 57.720,58.302 58.332 C 58.184 58.781,57.685 59.191,57.163 59.266 C 56.561 59.353,56.151 59.748,56.002 60.385 C 55.862 60.982,55.382 61.479,54.785 61.646 C 54.243 61.797,54.070 61.941,54.400 61.966 C 54.920 62.006,54.923 62.061,54.419 62.380 C 54.100 62.582,53.708 62.666,53.548 62.568 C 53.251 62.384,52.578 63.958,52.721 64.500 C 52.764 64.665,52.665 64.779,52.500 64.753 C 51.308 64.564,50.757 64.915,50.540 66.000 C 50.408 66.660,50.132 67.200,49.926 67.200 C 49.721 67.200,49.681 67.408,49.838 67.662 C 50.014 67.947,49.948 68.015,49.665 67.840 C 49.413 67.684,48.890 67.741,48.503 67.966 C 48.071 68.218,48.002 68.380,48.324 68.388 C 48.612 68.395,48.734 68.583,48.596 68.807 C 48.458 69.030,48.177 69.109,47.972 68.983 C 47.768 68.856,47.600 68.928,47.600 69.143 C 47.600 69.358,47.825 69.624,48.100 69.735 C 48.424 69.866,48.375 69.948,47.962 69.968 C 47.611 69.986,46.981 70.405,46.562 70.900 L 45.800 71.800 46.800 71.003 L 47.800 70.206 46.826 71.307 C 46.259 71.949,45.746 72.237,45.598 71.997 C 45.231 71.404,44.246 73.421,44.534 74.173 C 44.715 74.644,44.504 74.808,43.687 74.832 C 43.089 74.849,42.820 74.952,43.088 75.061 C 43.473 75.217,43.473 75.371,43.088 75.785 C 42.732 76.170,42.521 76.189,42.306 75.856 C 42.119 75.565,42.010 75.654,42.006 76.100 C 42.003 76.485,42.182 76.800,42.403 76.800 C 42.647 76.800,42.615 77.107,42.323 77.574 C 42.057 78.000,41.696 78.259,41.520 78.151 C 41.344 78.042,41.200 78.151,41.200 78.394 C 41.200 78.637,40.885 78.782,40.500 78.718 C 40.040 78.640,39.819 78.840,39.856 79.300 C 39.886 79.685,39.770 80.000,39.598 80.000 C 39.426 80.000,39.178 80.279,39.047 80.621 C 38.887 81.038,38.971 81.149,39.305 80.959 C 39.577 80.803,39.273 81.242,38.629 81.934 C 37.985 82.626,37.360 83.094,37.241 82.974 C 37.121 82.854,37.288 82.589,37.612 82.384 C 37.971 82.157,38.014 82.010,37.724 82.006 C 37.078 81.998,36.690 82.702,36.418 84.377 C 36.262 85.336,35.874 85.941,35.195 86.284 C 34.648 86.560,34.253 87.059,34.318 87.393 C 34.382 87.727,34.228 88.000,33.975 88.000 C 33.722 88.000,33.622 88.279,33.753 88.621 C 33.889 88.977,33.822 89.137,33.595 88.997 C 33.378 88.863,33.200 88.916,33.200 89.115 C 33.200 89.315,32.795 89.673,32.300 89.912 C 31.805 90.151,31.636 90.358,31.924 90.373 C 32.212 90.388,32.334 90.583,32.196 90.807 C 32.058 91.030,31.749 91.092,31.509 90.944 C 31.225 90.768,31.152 90.974,31.299 91.537 C 31.423 92.011,31.362 92.500,31.162 92.623 C 30.963 92.746,30.800 93.197,30.800 93.624 C 30.800 94.051,30.609 94.400,30.376 94.400 C 30.143 94.400,30.051 94.560,30.172 94.755 C 30.292 94.950,30.033 95.203,29.596 95.317 C 29.112 95.443,28.800 95.863,28.800 96.386 C 28.800 96.860,28.620 97.136,28.400 97.000 C 28.180 96.864,28.000 97.113,28.000 97.554 C 28.000 97.994,27.664 98.590,27.254 98.877 C 26.546 99.373,26.408 99.601,26.394 100.300 C 26.391 100.465,26.202 100.330,25.976 100.000 C 25.647 99.520,25.577 99.600,25.626 100.400 C 25.737 102.184,25.607 103.251,25.300 103.071 C 24.684 102.708,23.116 103.603,23.341 104.190 C 23.464 104.511,23.409 104.871,23.217 104.989 C 23.026 105.107,22.748 105.923,22.600 106.802 C 22.374 108.136,22.174 108.400,21.389 108.400 C 20.447 108.400,20.120 109.336,19.893 112.672 C 19.861 113.152,19.691 113.456,19.517 113.349 C 19.343 113.241,19.200 113.534,19.200 114.000 C 19.200 114.472,19.020 114.736,18.793 114.596 C 18.570 114.458,18.514 114.132,18.670 113.872 C 18.832 113.603,18.662 113.636,18.277 113.949 C 17.580 114.514,17.314 115.424,17.963 115.023 C 18.162 114.900,18.231 115.159,18.116 115.599 C 18.001 116.040,17.768 116.400,17.598 116.400 C 17.316 116.400,16.719 118.606,16.635 119.961 C 16.595 120.598,15.200 120.949,15.200 120.322 C 15.200 120.098,15.470 120.018,15.800 120.145 C 16.130 120.271,16.400 120.187,16.400 119.958 C 16.400 118.166,14.949 120.137,14.600 122.404 C 14.380 123.832,14.054 125.225,13.876 125.500 C 13.698 125.775,13.666 126.000,13.805 126.000 C 13.944 126.000,13.685 126.474,13.229 127.054 C 12.773 127.634,12.400 128.519,12.400 129.021 C 12.400 129.523,12.226 129.993,12.013 130.067 C 11.800 130.140,11.582 130.773,11.530 131.472 C 11.477 132.172,11.336 132.736,11.217 132.725 C 10.172 132.630,9.824 132.827,10.397 133.189 C 10.872 133.490,10.892 133.668,10.497 134.063 C 10.223 134.337,9.976 135.019,9.947 135.580 C 9.904 136.411,9.840 136.341,9.600 135.200 L 9.305 133.800 9.253 135.467 C 9.221 136.469,9.399 137.214,9.700 137.336 C 10.024 137.468,10.059 137.655,9.799 137.870 C 9.163 138.394,8.499 140.099,8.449 141.336 C 8.387 142.870,7.933 143.549,7.601 142.603 C 7.365 141.931,7.315 141.924,7.083 142.529 C 6.941 142.898,7.003 143.200,7.220 143.200 C 7.682 143.200,7.324 144.873,6.541 146.373 C 6.246 146.938,6.004 148.067,6.002 148.881 C 6.001 149.696,5.785 150.834,5.523 151.410 C 5.145 152.239,5.153 152.524,5.560 152.776 C 5.969 153.028,5.927 153.374,5.357 154.447 L 4.638 155.800 4.367 154.600 C 4.217 153.940,4.068 153.580,4.036 153.800 C 3.975 154.208,3.275 162.900,2.996 166.703 C 2.911 167.860,2.562 169.205,2.221 169.692 C 1.879 170.179,1.597 171.033,1.594 171.589 C 1.590 172.278,1.482 172.434,1.257 172.078 C 0.698 171.198,0.403 180.852,0.403 200.000 C 0.403 219.148,0.698 228.802,1.257 227.922 C 1.483 227.565,1.592 227.716,1.600 228.400 C 1.607 228.950,1.783 229.670,1.991 230.000 C 2.265 230.433,2.180 230.677,1.685 230.877 C 1.076 231.123,1.092 231.181,1.824 231.404 C 2.674 231.661,3.614 236.753,3.604 241.044 C 3.597 243.986,4.118 246.832,4.401 245.400 L 4.638 244.200 5.357 245.553 C 5.895 246.566,5.955 246.981,5.596 247.202 C 5.239 247.423,5.230 247.708,5.559 248.323 C 5.801 248.776,6.000 249.750,6.000 250.488 C 6.000 251.225,6.371 252.884,6.825 254.175 C 7.279 255.466,7.491 256.630,7.297 256.761 C 7.103 256.892,7.074 257.450,7.232 258.000 C 7.514 258.977,7.521 258.972,7.560 257.820 C 7.618 256.113,8.405 257.082,8.475 258.946 C 8.506 259.764,8.681 260.527,8.865 260.640 C 9.049 260.754,9.224 262.052,9.253 263.524 C 9.296 265.748,9.355 265.964,9.600 264.800 C 9.846 263.631,9.903 263.571,9.947 264.438 C 9.976 265.009,10.360 265.802,10.800 266.200 C 11.240 266.598,11.597 267.121,11.594 267.362 C 11.591 267.603,11.413 267.530,11.200 267.200 C 10.967 266.839,10.810 266.790,10.806 267.076 C 10.803 267.338,10.980 267.664,11.200 267.800 C 11.420 267.936,11.600 268.497,11.600 269.047 C 11.600 269.612,11.774 269.940,12.000 269.800 C 12.376 269.568,12.580 271.096,12.428 273.000 C 12.383 273.568,12.465 273.652,12.712 273.291 C 12.977 272.901,13.240 272.987,13.829 273.659 C 14.338 274.239,14.396 274.436,14.000 274.239 C 13.634 274.057,13.670 274.162,14.094 274.510 C 14.475 274.823,14.682 275.185,14.553 275.314 C 14.424 275.443,14.446 276.483,14.604 277.626 C 14.798 279.040,15.001 279.527,15.238 279.151 C 15.513 278.719,15.589 278.713,15.594 279.124 C 15.597 279.412,15.825 279.533,16.100 279.394 C 16.375 279.255,16.251 279.424,15.824 279.770 C 15.158 280.310,15.141 280.400,15.709 280.400 C 16.469 280.400,17.200 281.564,17.200 282.774 C 17.200 283.228,17.401 283.600,17.647 283.600 C 17.911 283.600,18.013 284.021,17.896 284.632 C 17.760 285.345,17.899 285.739,18.349 285.909 C 19.425 286.316,20.000 287.087,20.000 288.121 C 20.000 290.436,20.473 291.600,21.415 291.600 C 22.170 291.600,22.377 291.879,22.600 293.200 C 22.749 294.080,23.047 294.800,23.262 294.800 C 23.481 294.800,23.533 295.180,23.381 295.661 C 23.161 296.353,23.238 296.471,23.775 296.265 C 24.141 296.124,24.340 296.174,24.215 296.376 C 24.090 296.577,24.351 296.857,24.794 296.998 C 25.237 297.139,25.600 297.497,25.600 297.794 C 25.600 298.090,25.825 298.424,26.100 298.535 C 26.500 298.696,26.500 298.743,26.100 298.768 C 25.825 298.786,25.613 299.205,25.628 299.700 C 25.655 300.559,25.672 300.563,26.000 299.800 C 26.339 299.011,26.582 299.503,26.435 300.680 C 26.400 300.956,26.715 301.093,27.179 301.004 C 27.622 300.919,27.966 300.973,27.944 301.125 C 27.802 302.126,28.065 303.207,28.400 303.000 C 28.737 302.792,29.001 303.890,28.852 304.886 C 28.829 305.043,29.107 305.057,29.470 304.918 C 29.952 304.733,30.042 304.809,29.800 305.200 C 29.558 305.592,29.648 305.667,30.134 305.481 C 30.642 305.286,30.800 305.454,30.800 306.189 C 30.800 306.719,30.956 307.249,31.146 307.367 C 31.337 307.485,31.413 308.080,31.315 308.690 C 31.206 309.371,31.270 309.615,31.479 309.321 C 31.854 308.797,32.963 309.266,33.050 309.985 C 33.078 310.213,33.123 310.591,33.150 310.824 C 33.178 311.057,33.378 311.137,33.595 311.003 C 33.822 310.863,33.889 311.023,33.753 311.379 C 33.622 311.721,33.714 312.000,33.957 312.000 C 34.201 312.000,34.379 312.135,34.353 312.300 C 34.213 313.187,34.485 313.600,35.213 313.600 C 36.091 313.600,36.206 313.811,36.593 316.130 C 36.802 317.389,37.090 317.762,38.211 318.230 C 39.147 318.621,39.503 318.988,39.345 319.400 C 39.218 319.730,39.294 320.000,39.513 320.000 C 39.732 320.000,39.886 320.315,39.856 320.700 C 39.819 321.160,40.040 321.360,40.500 321.282 C 40.885 321.218,41.200 321.363,41.200 321.606 C 41.200 321.849,41.344 321.958,41.520 321.849 C 41.696 321.741,42.057 322.000,42.323 322.426 C 42.615 322.893,42.647 323.200,42.403 323.200 C 42.182 323.200,42.003 323.515,42.006 323.900 C 42.010 324.346,42.119 324.435,42.306 324.144 C 42.521 323.811,42.732 323.830,43.088 324.215 C 43.473 324.629,43.473 324.788,43.088 324.960 C 42.820 325.081,43.050 325.139,43.600 325.090 C 44.427 325.016,44.578 325.155,44.475 325.897 C 44.407 326.391,44.632 327.196,44.975 327.686 C 45.319 328.177,45.600 328.369,45.600 328.113 C 45.600 327.857,45.420 327.536,45.200 327.400 C 44.980 327.264,44.814 326.848,44.832 326.476 C 44.857 325.928,44.904 325.914,45.081 326.400 C 45.200 326.730,45.861 327.626,46.549 328.391 C 47.237 329.157,47.431 329.517,46.980 329.191 C 46.215 328.639,46.216 328.654,47.008 329.418 C 47.473 329.868,47.774 330.478,47.675 330.774 C 47.577 331.070,47.679 331.198,47.903 331.060 C 48.126 330.922,48.535 331.081,48.811 331.414 C 49.235 331.924,49.195 331.980,48.557 331.771 C 47.951 331.574,47.917 331.607,48.387 331.939 C 48.765 332.207,49.138 332.218,49.438 331.969 C 49.898 331.587,50.337 332.412,50.570 334.100 C 50.695 335.011,50.861 335.153,51.994 335.326 C 52.625 335.422,52.960 335.758,53.003 336.335 C 53.070 337.244,53.600 338.071,53.600 337.267 C 53.600 337.010,53.791 336.800,54.024 336.800 C 54.257 336.800,54.336 336.980,54.200 337.200 C 54.064 337.420,54.188 337.603,54.476 337.606 C 54.857 337.611,54.836 337.718,54.400 338.000 C 53.831 338.368,54.577 338.625,55.700 338.447 C 55.865 338.421,56.000 338.839,56.000 339.376 C 56.000 340.540,56.747 341.128,57.239 340.351 C 57.512 339.919,57.589 339.956,57.594 340.524 C 57.597 340.922,57.784 341.133,58.010 340.994 C 58.235 340.855,58.394 340.889,58.363 341.070 C 58.237 341.792,58.475 342.970,58.657 342.525 C 58.793 342.190,59.060 342.249,59.562 342.725 C 59.953 343.096,60.201 343.535,60.113 343.700 C 60.025 343.865,60.246 344.000,60.605 344.000 C 61.514 344.000,62.565 345.072,61.896 345.318 C 61.174 345.583,61.995 346.342,63.209 346.532 C 63.988 346.653,64.175 346.891,64.082 347.643 C 64.001 348.298,64.076 348.436,64.317 348.081 C 64.601 347.665,64.772 347.685,65.184 348.181 C 65.605 348.688,65.599 348.802,65.149 348.812 C 64.778 348.820,64.828 348.957,65.303 349.234 C 65.690 349.459,66.156 349.551,66.340 349.437 C 66.523 349.324,67.287 349.891,68.037 350.698 C 68.786 351.505,69.040 351.903,68.600 351.583 C 68.160 351.262,67.565 350.730,67.278 350.400 C 66.840 349.897,66.826 349.945,67.192 350.700 C 67.432 351.195,67.765 351.600,67.931 351.600 C 68.098 351.600,69.280 352.484,70.557 353.564 C 72.780 355.443,74.737 356.485,74.124 355.463 C 73.964 355.197,74.124 355.225,74.499 355.529 C 74.867 355.827,75.046 356.337,74.908 356.695 C 74.770 357.056,74.832 357.228,75.051 357.092 C 75.264 356.960,75.700 357.018,76.019 357.220 C 76.489 357.518,76.447 357.599,75.800 357.647 C 75.360 357.679,75.622 357.817,76.383 357.953 C 77.430 358.140,77.823 358.443,78.000 359.200 C 78.145 359.822,78.558 360.247,79.094 360.325 C 79.568 360.394,80.665 361.159,81.531 362.025 C 82.691 363.185,83.435 363.600,84.353 363.600 C 85.039 363.600,85.600 363.791,85.600 364.024 C 85.600 364.257,85.778 364.337,85.995 364.203 C 86.213 364.068,86.295 364.209,86.177 364.515 C 85.897 365.246,86.813 365.977,88.150 366.088 C 89.089 366.165,91.864 368.400,91.021 368.400 C 90.841 368.400,90.250 367.905,89.708 367.300 C 88.925 366.425,88.814 366.380,89.164 367.078 C 89.754 368.254,90.246 368.529,92.600 369.000 C 94.351 369.350,94.584 369.512,94.475 370.300 C 94.358 371.141,95.068 371.473,96.500 371.247 C 96.665 371.221,96.800 371.380,96.800 371.600 C 96.800 371.820,97.256 372.000,97.813 372.000 C 98.489 372.000,98.946 372.299,99.188 372.900 C 99.387 373.395,99.561 373.568,99.575 373.284 C 99.595 372.863,99.702 372.863,100.156 373.284 C 100.558 373.658,100.586 373.881,100.256 374.094 C 99.999 374.260,100.269 374.390,100.876 374.394 C 101.468 374.397,102.066 374.583,102.204 374.807 C 102.342 375.030,102.604 375.121,102.786 375.009 C 103.094 374.818,103.779 375.908,103.684 376.437 C 103.661 376.568,104.556 376.707,105.674 376.747 C 107.849 376.823,108.538 377.054,108.205 377.592 C 107.916 378.060,108.414 379.239,108.800 379.000 C 108.974 378.893,109.219 379.074,109.346 379.402 C 109.502 379.811,110.148 380.000,111.387 380.000 C 112.568 380.000,113.202 380.174,113.206 380.500 C 113.211 380.873,113.288 380.881,113.511 380.530 C 113.712 380.215,113.954 380.368,114.252 380.997 C 114.628 381.795,114.597 381.900,114.047 381.703 C 113.691 381.576,113.517 381.603,113.660 381.763 C 113.804 381.923,114.881 382.143,116.056 382.252 C 118.215 382.453,121.061 384.054,120.596 384.806 C 120.324 385.247,122.928 385.764,124.005 385.483 C 124.561 385.337,124.802 385.474,124.806 385.937 C 124.810 386.375,124.912 386.443,125.107 386.136 C 125.318 385.805,125.672 385.891,126.345 386.436 L 127.289 387.200 126.344 387.240 L 125.400 387.280 126.400 387.566 C 126.950 387.723,127.451 387.731,127.514 387.584 C 127.678 387.199,129.600 387.625,129.600 388.047 C 129.600 388.241,130.200 388.400,130.933 388.400 C 131.667 388.400,132.402 388.535,132.567 388.700 C 132.732 388.865,132.987 389.001,133.133 389.003 C 134.037 389.013,135.248 390.334,134.537 390.535 C 134.132 390.649,134.700 390.740,135.800 390.736 C 136.900 390.732,137.980 390.766,138.200 390.811 C 138.420 390.855,138.960 390.863,139.400 390.828 C 140.047 390.776,140.089 390.839,139.616 391.158 C 139.167 391.460,139.306 391.558,140.216 391.580 C 142.265 391.630,142.770 391.725,142.585 392.025 C 142.326 392.443,143.490 392.817,144.200 392.545 C 144.530 392.418,144.800 392.514,144.800 392.757 C 144.800 393.007,145.541 393.212,146.500 393.228 C 147.817 393.250,148.020 393.334,147.400 393.600 C 146.733 393.886,146.821 393.948,147.924 393.972 C 148.859 393.992,149.172 393.854,148.989 393.500 C 148.847 393.225,149.082 393.432,149.512 393.960 C 150.043 394.612,150.349 394.754,150.466 394.402 C 150.600 394.001,150.829 393.987,151.493 394.343 C 151.963 394.594,152.799 394.800,153.350 394.800 C 153.902 394.800,154.464 394.980,154.600 395.200 C 154.748 395.439,154.249 395.600,153.357 395.600 C 152.537 395.600,151.960 395.694,152.075 395.808 C 152.259 395.992,154.240 396.182,165.200 397.067 C 166.630 397.183,167.932 397.485,168.094 397.738 C 168.313 398.083,168.389 398.079,168.394 397.724 C 168.398 397.379,168.703 397.405,169.500 397.821 C 170.105 398.137,170.926 398.396,171.324 398.398 C 171.722 398.399,171.953 398.552,171.838 398.739 C 171.490 399.301,181.530 399.600,200.800 399.600 C 220.070 399.600,230.110 399.301,229.762 398.739 C 229.647 398.552,229.878 398.399,230.276 398.398 C 230.674 398.396,231.538 398.115,232.195 397.772 C 232.897 397.406,234.712 397.095,236.595 397.019 C 243.782 396.729,252.536 395.639,248.167 395.578 L 246.600 395.556 248.400 394.855 C 249.390 394.469,250.304 394.305,250.432 394.490 C 250.721 394.910,252.000 394.453,252.000 393.930 C 252.000 393.719,252.383 393.668,252.850 393.816 C 253.361 393.978,253.604 393.931,253.460 393.697 C 253.320 393.471,254.197 393.221,255.560 393.097 C 257.917 392.883,260.946 391.760,260.614 391.223 C 260.516 391.064,260.689 390.933,261.000 390.933 C 261.311 390.933,261.472 391.084,261.358 391.267 C 261.245 391.451,261.793 391.223,262.576 390.761 C 263.368 390.294,264.000 390.116,264.000 390.360 C 264.000 390.625,264.757 390.781,265.900 390.753 C 267.596 390.710,267.671 390.673,266.600 390.400 C 265.780 390.191,265.657 390.080,266.211 390.047 C 266.657 390.021,267.422 389.720,267.912 389.377 C 268.401 389.034,268.986 388.867,269.211 389.007 C 269.436 389.146,269.570 389.084,269.510 388.870 C 269.449 388.655,269.560 388.477,269.755 388.474 C 269.951 388.471,270.224 388.285,270.362 388.061 C 270.501 387.837,271.593 387.597,272.789 387.527 C 274.565 387.423,275.004 387.253,275.182 386.600 C 275.339 386.025,275.795 385.768,276.800 385.688 C 279.586 385.467,281.295 385.106,280.852 384.832 C 280.528 384.632,280.566 384.333,280.987 383.776 C 281.350 383.298,281.579 383.201,281.587 383.524 C 281.594 383.812,281.783 383.934,282.007 383.796 C 282.230 383.658,282.328 383.407,282.224 383.239 C 282.120 383.071,282.593 382.933,283.274 382.933 C 283.988 382.933,284.728 382.639,285.020 382.240 C 285.603 381.444,286.002 381.356,286.366 381.945 C 286.528 382.208,286.835 382.222,287.211 381.985 C 287.697 381.678,287.702 381.611,287.238 381.606 C 285.928 381.592,288.049 380.128,289.456 380.075 C 291.506 379.998,292.647 379.600,291.988 379.193 C 291.576 378.938,291.599 378.744,292.103 378.240 C 292.576 377.767,292.786 377.733,292.936 378.104 C 293.061 378.413,293.149 378.352,293.168 377.943 C 293.207 377.143,294.014 376.800,295.856 376.800 C 296.621 376.800,297.148 376.639,297.026 376.442 C 296.904 376.245,297.074 375.981,297.402 375.854 C 297.731 375.728,298.000 375.349,298.000 375.013 C 298.000 374.427,299.089 374.192,300.924 374.383 C 301.927 374.487,302.802 373.671,302.508 372.905 C 302.332 372.446,302.413 372.361,302.800 372.600 C 303.204 372.850,303.265 372.746,303.047 372.178 C 302.888 371.763,302.880 371.547,303.030 371.696 C 303.179 371.846,303.909 371.715,304.651 371.405 C 305.451 371.070,306.000 371.005,306.000 371.244 C 306.000 371.466,306.183 371.534,306.407 371.396 C 306.630 371.258,306.702 370.965,306.566 370.746 C 306.262 370.252,307.551 369.230,308.500 369.213 C 308.885 369.206,309.200 369.040,309.200 368.844 C 309.200 368.649,309.504 368.514,309.877 368.544 C 310.249 368.575,310.768 368.180,311.030 367.666 C 311.758 366.242,312.213 365.920,313.665 365.799 C 314.399 365.738,315.229 365.668,315.510 365.644 C 315.790 365.620,316.181 365.175,316.379 364.656 C 316.608 364.052,317.177 363.625,317.961 363.468 C 318.902 363.280,319.124 363.067,318.924 362.546 C 318.733 362.049,318.806 361.957,319.200 362.200 C 319.595 362.444,319.667 362.351,319.473 361.845 C 319.328 361.467,319.349 361.245,319.519 361.350 C 319.689 361.455,320.542 361.192,321.414 360.764 C 322.286 360.337,322.640 360.088,322.200 360.213 C 321.564 360.392,321.651 360.185,322.627 359.200 C 323.302 358.519,324.239 357.932,324.710 357.897 C 325.181 357.861,325.485 357.751,325.385 357.652 C 325.143 357.409,326.915 356.179,327.319 356.309 C 327.494 356.366,327.584 356.095,327.519 355.706 C 327.452 355.309,327.619 355.044,327.900 355.100 C 328.175 355.155,328.400 355.037,328.400 354.837 C 328.400 354.638,328.805 354.564,329.300 354.672 C 330.023 354.831,330.082 354.785,329.600 354.441 C 329.061 354.056,329.297 353.826,330.100 353.953 C 330.265 353.979,330.400 353.848,330.400 353.661 C 330.400 353.043,331.909 351.571,332.423 351.686 C 332.702 351.749,333.041 351.360,333.177 350.822 C 333.348 350.150,333.828 349.740,334.713 349.511 C 335.623 349.275,336.000 348.942,336.000 348.376 C 336.000 347.935,336.269 347.472,336.598 347.346 C 336.926 347.219,337.106 346.972,336.997 346.795 C 336.888 346.619,337.159 346.569,337.599 346.684 C 338.342 346.878,338.640 346.322,338.447 345.100 C 338.421 344.935,338.591 344.800,338.824 344.800 C 339.057 344.800,339.143 344.632,339.016 344.426 C 338.889 344.220,339.373 343.995,340.092 343.926 C 341.184 343.821,341.421 343.618,341.527 342.700 C 341.635 341.758,341.837 341.599,342.927 341.594 C 343.627 341.591,344.002 341.456,343.760 341.294 C 343.251 340.954,344.348 338.684,345.006 338.714 C 345.223 338.724,345.660 338.522,345.977 338.266 C 346.440 337.892,346.493 337.918,346.247 338.400 C 346.079 338.730,346.224 338.651,346.570 338.224 C 346.917 337.796,347.200 337.283,347.200 337.084 C 347.200 336.884,347.830 336.090,348.600 335.320 C 349.370 334.550,350.000 333.781,350.000 333.610 C 350.000 333.440,350.540 333.192,351.200 333.060 C 352.015 332.897,352.400 332.582,352.400 332.080 C 352.400 331.239,354.118 329.451,354.530 329.863 C 354.806 330.139,354.954 329.428,354.821 328.460 C 354.780 328.163,354.894 328.009,355.073 328.118 C 355.253 328.227,355.632 328.065,355.916 327.758 C 356.199 327.451,356.334 327.200,356.216 327.200 C 356.097 327.200,356.315 326.875,356.700 326.478 C 357.157 326.006,357.502 325.902,357.694 326.178 C 357.856 326.410,357.991 326.105,357.994 325.500 C 357.997 324.895,358.191 324.400,358.424 324.400 C 358.657 324.400,358.742 324.229,358.612 324.020 C 358.483 323.811,358.743 323.445,359.189 323.206 C 359.795 322.882,360.000 322.894,360.000 323.253 C 360.000 323.517,360.116 323.618,360.257 323.476 C 360.398 323.335,360.263 322.916,359.957 322.545 C 359.476 321.962,359.482 321.898,360.000 322.074 C 360.402 322.211,360.746 321.869,361.043 321.039 C 361.356 320.163,361.734 319.809,362.333 319.831 C 363.013 319.855,363.244 319.540,363.503 318.231 C 363.744 317.008,364.104 316.466,364.941 316.064 C 365.632 315.733,365.976 315.313,365.842 314.964 C 365.723 314.654,365.785 314.400,365.981 314.400 C 366.176 314.400,366.455 313.860,366.600 313.200 C 366.808 312.251,367.076 312.000,367.878 312.000 C 368.745 312.000,368.865 311.854,368.702 311.000 C 368.597 310.450,368.666 310.000,368.855 310.000 C 369.045 310.000,369.200 309.550,369.200 309.000 C 369.200 308.277,369.415 308.000,369.976 308.000 C 370.944 308.000,371.412 307.286,371.253 306.055 C 371.176 305.455,371.289 305.208,371.565 305.379 C 371.822 305.537,372.000 305.324,372.000 304.856 C 372.000 303.562,372.428 302.836,373.049 303.074 C 373.408 303.212,373.588 303.087,373.516 302.749 C 373.452 302.447,373.625 302.245,373.900 302.300 C 374.193 302.359,374.400 301.987,374.400 301.400 C 374.400 300.850,374.760 300.040,375.200 299.600 C 375.684 299.116,375.802 298.798,375.500 298.794 C 375.162 298.790,375.191 298.667,375.589 298.415 C 375.978 298.169,376.291 298.206,376.506 298.521 C 376.740 298.863,376.815 298.829,376.769 298.400 C 376.611 296.914,376.832 295.173,377.155 295.372 C 377.350 295.492,377.603 295.233,377.717 294.796 C 377.840 294.324,378.263 294.000,378.755 294.000 C 379.648 294.000,379.911 293.332,380.093 290.600 C 380.187 289.195,380.310 289.015,381.100 289.125 C 381.990 289.249,382.167 288.937,382.021 287.500 C 381.982 287.115,382.161 286.800,382.420 286.800 C 382.714 286.800,382.826 286.356,382.718 285.621 C 382.623 284.973,382.692 284.533,382.872 284.645 C 383.153 284.818,383.370 283.979,383.261 283.141 C 383.243 282.999,383.578 282.974,384.007 283.086 C 385.016 283.350,385.665 281.739,385.538 279.286 C 385.446 277.513,386.377 276.091,387.269 276.643 C 387.462 276.762,387.594 276.711,387.563 276.530 C 387.334 275.217,387.655 273.067,388.000 273.600 C 388.297 274.059,388.389 273.910,388.394 272.967 C 388.397 272.288,388.535 271.598,388.700 271.433 C 388.865 271.268,389.001 271.013,389.003 270.867 C 389.013 269.976,390.334 268.751,390.517 269.463 C 390.622 269.868,390.728 268.900,390.754 267.312 C 390.797 264.591,390.869 264.373,392.000 263.537 C 392.660 263.049,393.186 262.458,393.168 262.225 C 393.151 261.991,393.046 262.025,392.935 262.300 C 392.824 262.575,392.578 262.800,392.387 262.800 C 392.197 262.800,392.302 262.176,392.620 261.413 C 392.939 260.650,393.213 259.255,393.228 258.313 C 393.251 256.933,393.329 256.756,393.631 257.400 C 393.940 258.059,393.984 257.979,393.878 256.942 C 393.776 255.930,393.961 255.560,394.822 255.051 C 396.057 254.321,396.389 252.946,396.396 248.524 C 396.398 246.942,396.565 245.545,396.767 245.421 C 396.968 245.296,397.133 244.408,397.133 243.448 C 397.133 242.488,397.418 240.863,397.767 239.837 C 398.115 238.811,398.400 237.608,398.400 237.162 C 398.400 236.717,398.567 236.456,398.771 236.582 C 399.611 237.101,399.793 230.678,399.796 200.400 C 399.800 170.685,399.595 162.909,398.821 163.387 C 398.648 163.494,398.392 162.749,398.253 161.731 C 398.113 160.713,397.826 159.672,397.614 159.417 C 397.229 158.953,397.128 158.180,396.440 150.469 C 396.085 146.486,395.619 144.622,395.582 147.033 L 395.564 148.200 395.047 147.000 C 394.610 145.988,394.619 145.779,395.102 145.664 C 395.530 145.562,395.463 145.379,394.837 144.941 C 394.300 144.564,393.990 143.897,393.972 143.077 C 393.948 142.001,393.890 141.926,393.600 142.600 C 393.266 143.378,393.110 142.196,393.025 138.234 C 393.011 137.571,392.741 136.983,392.400 136.870 C 391.249 136.487,390.825 135.380,390.766 132.600 C 390.734 131.060,390.622 130.132,390.517 130.537 C 390.334 131.249,389.013 130.024,389.003 129.133 C 389.001 128.987,388.865 128.732,388.700 128.567 C 388.535 128.402,388.397 127.712,388.394 127.033 C 388.390 126.187,388.280 125.971,388.043 126.344 C 387.803 126.722,387.646 126.447,387.529 125.444 C 387.437 124.650,387.527 124.000,387.729 124.000 C 387.932 124.000,387.872 123.728,387.596 123.395 C 387.319 123.062,386.807 122.837,386.458 122.895 C 385.956 122.978,385.791 122.542,385.675 120.831 C 385.470 117.811,384.980 116.660,384.007 116.914 C 383.578 117.026,383.248 117.001,383.272 116.859 C 383.402 116.117,382.645 113.200,382.324 113.200 C 382.118 113.200,382.006 112.800,382.075 112.311 C 382.165 111.669,381.894 111.273,381.100 110.889 C 380.182 110.444,380.000 110.101,380.000 108.811 C 380.000 106.887,379.612 105.733,379.193 106.411 C 378.996 106.730,378.658 106.483,378.176 105.666 C 377.778 104.994,377.306 104.534,377.127 104.645 C 376.832 104.828,376.606 102.958,376.771 101.697 C 376.807 101.420,376.383 101.022,375.829 100.811 C 375.233 100.585,374.736 100.014,374.611 99.414 C 374.495 98.856,374.306 97.946,374.190 97.391 C 374.012 96.537,373.862 96.446,373.209 96.795 C 372.530 97.158,372.406 97.040,372.175 95.807 C 372.031 95.037,371.752 94.506,371.556 94.627 C 371.360 94.748,371.178 94.477,371.150 94.024 C 371.123 93.571,371.078 92.975,371.050 92.700 C 371.023 92.425,370.595 92.142,370.100 92.072 C 369.449 91.980,369.200 91.676,369.200 90.972 C 369.200 90.437,369.045 90.000,368.855 90.000 C 368.666 90.000,368.602 89.524,368.713 88.942 C 368.897 87.980,368.820 87.903,367.858 88.087 C 366.950 88.260,366.800 88.152,366.800 87.321 C 366.800 86.785,366.624 86.462,366.405 86.597 C 366.178 86.737,366.111 86.577,366.247 86.221 C 366.378 85.879,366.292 85.600,366.055 85.600 C 365.819 85.600,365.728 85.331,365.854 85.003 C 366.066 84.450,364.551 83.491,363.983 83.819 C 363.864 83.888,363.737 83.552,363.701 83.072 C 363.558 81.167,363.177 80.400,362.372 80.400 C 361.828 80.400,361.420 80.003,361.140 79.200 C 360.910 78.540,360.447 78.000,360.112 78.000 C 359.611 78.000,359.592 77.891,360.008 77.390 C 360.286 77.055,360.398 76.665,360.257 76.524 C 360.116 76.382,360.000 76.461,360.000 76.698 C 360.000 77.171,359.284 77.155,358.500 76.665 C 358.225 76.493,357.997 75.598,357.994 74.676 C 357.989 73.447,357.884 73.160,357.600 73.600 C 357.256 74.132,357.034 73.901,357.145 73.124 C 357.166 72.973,356.827 72.736,356.392 72.597 C 355.956 72.459,355.600 72.168,355.600 71.949 C 355.600 71.731,355.408 71.671,355.173 71.817 C 354.939 71.962,354.780 71.837,354.821 71.540 C 354.964 70.493,354.796 69.956,354.400 70.200 C 354.180 70.336,354.000 70.249,354.000 70.006 C 354.000 69.763,353.689 69.618,353.309 69.682 C 352.633 69.798,352.552 69.638,352.450 67.990 C 352.416 67.432,352.035 67.107,351.226 66.945 C 350.081 66.716,349.470 65.996,349.422 64.818 C 349.408 64.498,348.955 64.131,348.413 64.003 C 347.799 63.858,347.342 63.401,347.197 62.785 C 347.069 62.243,346.747 61.778,346.482 61.750 C 346.217 61.723,345.910 61.655,345.800 61.600 C 345.690 61.545,345.465 61.475,345.300 61.444 C 344.642 61.321,343.998 60.726,344.189 60.418 C 344.300 60.238,344.125 59.870,343.800 59.600 C 343.475 59.330,343.307 58.950,343.428 58.755 C 343.549 58.560,343.457 58.400,343.224 58.400 C 342.991 58.400,342.800 58.586,342.800 58.814 C 342.800 59.042,342.378 58.817,341.861 58.314 C 341.331 57.798,341.092 57.289,341.312 57.145 C 341.898 56.762,341.264 56.000,340.360 56.000 C 339.282 56.000,338.481 55.178,338.708 54.308 C 338.845 53.786,338.556 53.473,337.645 53.156 C 336.855 52.880,336.306 52.365,336.153 51.757 C 336.002 51.154,335.517 50.694,334.860 50.529 C 333.627 50.220,333.000 49.637,333.000 48.800 C 333.000 48.470,332.765 48.248,332.479 48.307 C 331.876 48.431,331.072 47.709,330.690 46.700 C 330.544 46.315,330.139 46.000,329.789 46.000 C 329.405 46.000,329.267 45.814,329.442 45.532 C 329.636 45.217,329.513 45.148,329.066 45.319 C 328.700 45.460,328.400 45.401,328.400 45.187 C 328.400 44.974,328.175 44.845,327.900 44.900 C 327.619 44.956,327.452 44.691,327.519 44.294 C 327.584 43.905,327.494 43.626,327.319 43.674 C 326.670 43.849,323.000 41.146,322.990 40.485 C 322.984 40.087,322.693 39.823,322.294 39.855 C 321.917 39.885,321.707 39.750,321.828 39.555 C 321.949 39.360,321.812 39.173,321.524 39.139 C 321.236 39.106,320.799 39.058,320.554 39.033 C 319.915 38.968,318.800 37.978,318.800 37.475 C 318.800 37.239,319.061 37.396,319.380 37.824 C 319.941 38.575,319.953 38.571,319.736 37.710 C 319.577 37.077,319.105 36.743,318.104 36.556 C 317.183 36.383,316.626 36.022,316.493 35.512 C 316.338 34.919,316.211 34.859,315.961 35.263 C 315.700 35.685,315.532 35.692,315.137 35.297 C 314.741 34.901,314.758 34.798,315.220 34.788 C 315.651 34.779,315.619 34.670,315.097 34.366 C 314.710 34.141,314.207 34.072,313.979 34.213 C 313.751 34.354,313.311 34.258,313.000 34.000 C 312.689 33.742,312.219 33.664,311.956 33.827 C 311.652 34.015,311.581 33.954,311.762 33.662 C 311.919 33.408,311.869 33.200,311.651 33.200 C 311.434 33.200,311.198 32.795,311.128 32.300 C 311.045 31.716,310.719 31.395,310.200 31.385 C 309.759 31.377,309.174 31.231,308.900 31.062 C 308.625 30.892,308.400 30.885,308.400 31.046 C 308.400 31.207,307.948 30.915,307.396 30.396 C 306.659 29.704,306.525 29.370,306.891 29.144 C 307.230 28.934,307.135 28.831,306.595 28.822 C 304.444 28.787,302.862 28.303,303.077 27.745 C 303.381 26.952,302.021 25.550,301.021 25.626 C 298.970 25.782,298.000 25.577,298.000 24.987 C 298.000 24.651,297.731 24.272,297.402 24.146 C 297.074 24.019,296.912 23.743,297.042 23.531 C 297.173 23.320,297.037 23.196,296.740 23.257 C 296.443 23.318,295.808 23.151,295.329 22.885 C 294.850 22.620,294.175 22.511,293.829 22.644 C 293.397 22.810,293.198 22.653,293.194 22.143 C 293.190 21.642,293.087 21.558,292.880 21.884 C 292.658 22.233,292.436 22.150,292.083 21.584 C 291.694 20.961,291.697 20.795,292.097 20.775 C 293.078 20.725,290.628 19.969,289.328 19.920 C 288.023 19.871,286.018 18.407,287.238 18.394 C 287.702 18.389,287.697 18.322,287.211 18.015 C 286.856 17.791,286.531 17.788,286.395 18.008 C 286.270 18.210,285.642 18.087,284.985 17.730 C 284.333 17.376,283.385 17.111,282.878 17.141 C 282.371 17.170,282.059 17.028,282.185 16.825 C 282.310 16.622,282.230 16.342,282.007 16.204 C 281.783 16.066,281.600 16.143,281.600 16.376 C 281.600 16.609,281.278 16.485,280.885 16.100 C 280.260 15.488,280.247 15.368,280.785 15.150 C 281.317 14.934,278.794 14.467,276.145 14.293 C 275.675 14.262,275.077 13.895,274.816 13.476 C 274.444 12.881,274.447 12.782,274.832 13.020 C 275.119 13.197,275.221 13.158,275.078 12.926 C 274.943 12.707,273.880 12.495,272.716 12.454 C 271.552 12.413,270.540 12.204,270.466 11.988 C 270.392 11.772,270.190 11.682,270.017 11.789 C 269.845 11.896,269.287 11.622,268.778 11.181 C 268.269 10.739,267.391 10.259,266.826 10.114 L 265.800 9.850 266.800 9.565 C 267.620 9.331,267.499 9.273,266.133 9.240 C 265.217 9.218,264.406 9.381,264.332 9.603 C 264.175 10.076,261.600 9.215,261.600 8.689 C 261.600 8.504,261.440 8.451,261.245 8.572 C 260.869 8.804,259.709 7.637,259.930 7.249 C 260.002 7.123,259.867 6.955,259.630 6.877 C 259.394 6.798,259.200 6.909,259.200 7.124 C 259.200 7.369,258.639 7.389,257.700 7.178 C 256.471 6.903,254.364 6.587,252.700 6.429 C 252.535 6.413,252.421 6.265,252.447 6.100 C 252.563 5.365,252.360 5.043,252.069 5.501 C 251.819 5.896,251.329 5.855,249.775 5.312 L 247.800 4.620 249.200 4.391 C 250.216 4.224,249.522 4.073,246.673 3.841 C 244.513 3.665,242.639 3.627,242.510 3.757 C 242.380 3.887,242.022 3.784,241.715 3.529 C 241.408 3.274,239.534 3.018,237.551 2.959 C 235.567 2.900,233.723 2.668,233.452 2.444 C 233.182 2.219,232.208 1.915,231.287 1.768 C 230.367 1.620,229.695 1.370,229.793 1.211 C 230.225 0.512,191.221 0.151,174.602 0.699 M316.033 88.418 C 317.199 89.041,317.371 91.345,316.630 96.367 C 314.070 113.695,306.770 126.115,297.096 129.601 C 295.943 130.016,294.280 130.618,293.400 130.938 C 289.569 132.331,280.479 132.066,277.325 130.470 C 276.486 130.046,274.851 129.497,273.691 129.252 C 272.532 129.006,270.693 128.354,269.605 127.802 C 268.517 127.251,267.385 126.800,267.089 126.800 C 266.794 126.800,265.303 126.185,263.776 125.433 C 262.249 124.681,260.460 123.935,259.800 123.776 C 259.140 123.617,257.966 123.169,257.191 122.781 C 248.004 118.185,240.121 119.016,238.206 124.781 C 235.871 131.811,235.548 131.987,225.000 131.992 C 212.636 131.997,212.489 131.908,213.162 124.787 C 215.401 101.127,225.639 88.547,243.027 88.090 L 249.054 87.931 253.850 89.581 C 256.488 90.488,259.521 91.674,260.591 92.215 C 261.660 92.757,262.798 93.200,263.119 93.200 C 263.440 93.200,264.625 93.716,265.751 94.347 C 266.878 94.978,268.700 95.712,269.800 95.977 C 270.900 96.243,272.340 96.794,273.000 97.201 C 274.412 98.072,282.461 100.000,284.686 100.000 C 288.520 100.000,291.029 97.380,292.809 91.516 C 293.258 90.040,293.844 88.690,294.112 88.516 C 295.304 87.744,314.612 87.657,316.033 88.418 M179.258 140.825 C 183.450 141.255,189.051 143.101,192.455 145.177 C 194.357 146.336,195.134 146.210,196.612 144.500 L 197.908 143.000 214.254 142.899 C 233.829 142.778,233.450 142.641,235.601 150.600 C 236.438 153.697,238.559 158.820,239.270 159.464 C 240.079 160.196,242.941 158.647,243.389 157.235 C 243.704 156.242,248.721 151.145,250.800 149.706 C 257.394 145.142,264.779 142.308,271.863 141.622 C 273.878 141.427,275.891 141.072,276.337 140.834 C 277.376 140.278,287.734 140.261,289.603 140.812 C 290.371 141.039,292.980 141.480,295.400 141.792 C 305.433 143.087,316.415 149.674,322.111 157.813 C 322.721 158.686,323.666 160.030,324.209 160.800 C 324.753 161.570,325.565 163.010,326.015 164.000 C 326.465 164.990,327.283 166.733,327.833 167.873 C 328.383 169.012,328.997 170.902,329.197 172.073 C 329.397 173.243,329.914 175.105,330.345 176.211 C 331.854 180.082,331.998 186.907,331.601 235.743 C 331.326 269.422,331.103 281.835,330.764 282.243 C 330.379 282.707,326.572 282.800,308.013 282.800 C 281.258 282.800,284.225 283.713,284.145 275.458 C 284.115 272.346,283.967 254.770,283.817 236.400 C 283.460 192.876,283.088 190.017,276.941 183.572 C 274.177 180.675,271.782 179.801,266.600 179.801 C 254.721 179.800,248.030 187.343,245.816 203.231 C 245.496 205.524,245.060 208.570,244.846 210.000 C 244.632 211.430,244.344 223.220,244.205 236.200 C 243.724 281.124,243.713 281.647,243.225 282.136 C 242.900 282.461,238.736 282.660,229.281 282.800 C 217.515 282.975,215.640 283.088,214.539 283.690 C 212.896 284.589,169.742 285.287,167.715 284.448 C 165.030 283.336,165.175 285.620,165.191 244.518 C 165.200 222.456,165.042 205.737,164.803 203.300 C 164.581 201.045,164.227 197.432,164.016 195.271 C 163.286 187.793,159.279 182.339,153.656 181.169 C 144.363 179.234,133.851 185.647,132.558 194.039 C 132.408 195.008,131.949 196.668,131.537 197.730 C 129.976 201.751,129.885 203.969,129.639 243.691 L 129.400 282.382 128.291 283.491 L 127.182 284.600 103.782 284.709 C 78.678 284.827,79.308 284.877,78.252 282.653 C 77.473 281.012,77.233 147.536,78.004 144.760 C 78.858 141.689,78.102 141.814,96.542 141.681 C 114.545 141.550,115.075 141.584,116.460 142.969 C 117.547 144.056,119.537 148.713,120.992 153.574 C 122.490 158.579,123.884 159.435,125.742 156.492 C 130.433 149.060,143.068 141.683,152.555 140.835 C 158.016 140.348,174.541 140.341,179.258 140.825 M395.600 253.400 C 395.600 254.016,395.373 254.400,395.009 254.400 C 394.523 254.400,394.499 254.221,394.873 253.400 C 395.123 252.850,395.390 252.400,395.464 252.400 C 395.539 252.400,395.600 252.850,395.600 253.400 M72.053 353.800 C 72.905 354.570,73.457 355.200,73.279 355.200 C 73.102 355.200,72.269 354.570,71.428 353.800 C 70.587 353.030,70.035 352.400,70.201 352.400 C 70.367 352.400,71.200 353.030,72.053 353.800 M83.021 362.712 C 82.805 362.928,81.600 361.788,81.600 361.367 C 81.600 361.207,81.961 361.403,82.402 361.802 C 82.844 362.202,83.122 362.611,83.021 362.712 M316.000 364.600 C 316.000 364.930,315.708 365.200,315.351 365.200 C 314.820 365.200,314.792 365.091,315.200 364.600 C 315.474 364.270,315.766 364.000,315.849 364.000 C 315.932 364.000,316.000 364.270,316.000 364.600 " stroke="none" fill="#e42c24" fill-rule="evenodd"></path><path id="path1" d="M166.800 1.600 C 166.800 2.058,167.370 2.058,168.800 1.600 C 169.692 1.314,169.639 1.275,168.300 1.240 C 167.475 1.218,166.800 1.380,166.800 1.600 M231.633 1.347 C 232.105 1.763,234.800 1.993,234.800 1.618 C 234.800 1.388,234.050 1.200,233.133 1.200 C 232.217 1.200,231.542 1.266,231.633 1.347 M162.800 2.400 C 162.800 2.620,163.520 2.800,164.400 2.800 C 165.280 2.800,166.000 2.620,166.000 2.400 C 166.000 2.180,165.280 2.000,164.400 2.000 C 163.520 2.000,162.800 2.180,162.800 2.400 M235.400 2.400 C 235.536 2.620,236.177 2.800,236.824 2.800 C 237.471 2.800,238.000 2.620,238.000 2.400 C 238.000 2.180,237.359 2.000,236.576 2.000 C 235.729 2.000,235.253 2.162,235.400 2.400 M250.576 5.013 C 251.566 5.761,252.000 5.757,252.000 5.000 C 252.000 4.609,251.617 4.404,250.900 4.413 C 249.846 4.425,249.833 4.450,250.576 5.013 M132.629 9.900 C 132.828 10.065,133.103 10.350,133.240 10.534 C 133.377 10.717,133.598 10.582,133.732 10.234 C 133.907 9.777,133.736 9.600,133.121 9.600 C 132.651 9.600,132.430 9.735,132.629 9.900 M267.633 9.713 C 267.725 9.775,268.115 10.067,268.500 10.362 C 269.099 10.821,269.200 10.804,269.200 10.249 C 269.200 9.850,268.866 9.600,268.333 9.600 C 267.857 9.600,267.542 9.651,267.633 9.713 M127.505 12.283 C 128.002 12.379,128.722 12.375,129.105 12.275 C 129.487 12.175,129.080 12.096,128.200 12.101 C 127.320 12.105,127.007 12.187,127.505 12.283 M271.500 12.282 C 271.995 12.378,272.805 12.378,273.300 12.282 C 273.795 12.187,273.390 12.109,272.400 12.109 C 271.410 12.109,271.005 12.187,271.500 12.282 M323.802 41.202 C 324.202 41.644,324.611 41.922,324.712 41.821 C 324.928 41.605,323.788 40.400,323.367 40.400 C 323.207 40.400,323.403 40.761,323.802 41.202 M376.893 103.200 C 376.893 103.970,376.975 104.285,377.076 103.900 C 377.176 103.515,377.176 102.885,377.076 102.500 C 376.975 102.115,376.893 102.430,376.893 103.200 M12.101 128.200 C 12.105 129.080,12.187 129.393,12.283 128.895 C 12.379 128.398,12.375 127.678,12.275 127.295 C 12.175 126.913,12.096 127.320,12.101 128.200 M393.309 139.600 C 393.309 140.590,393.387 140.995,393.482 140.500 C 393.578 140.005,393.578 139.195,393.482 138.700 C 393.387 138.205,393.309 138.610,393.309 139.600 M150.931 142.804 C 150.012 142.993,148.752 143.407,148.131 143.724 C 147.509 144.041,145.920 144.610,144.600 144.988 C 138.716 146.676,130.270 152.779,126.739 157.894 C 123.412 162.713,121.505 161.457,118.589 152.524 C 117.064 147.853,116.382 146.325,115.367 145.300 L 114.080 144.000 97.463 144.000 L 80.845 144.000 80.223 144.889 C 79.665 145.685,79.600 152.869,79.600 213.666 L 79.600 281.555 80.489 282.177 C 82.080 283.292,124.712 283.099,126.146 281.971 L 127.200 281.142 127.200 248.256 C 127.200 211.268,127.794 200.503,130.129 195.181 C 130.656 193.981,131.209 192.330,131.359 191.512 C 131.509 190.693,132.036 189.523,132.529 188.912 C 133.022 188.300,133.913 187.043,134.507 186.117 C 139.319 178.628,152.835 176.482,159.594 182.133 C 162.590 184.639,164.241 187.732,165.711 193.595 L 166.966 198.600 167.095 240.099 L 167.225 281.598 168.179 282.223 C 169.790 283.278,195.581 282.910,197.800 281.800 C 199.232 281.084,200.064 281.012,205.744 281.112 C 212.767 281.236,213.439 281.059,212.738 279.269 C 212.493 278.645,212.263 273.456,212.185 266.800 C 212.112 260.530,211.907 251.980,211.730 247.800 L 211.407 240.200 211.081 244.200 C 210.901 246.400,210.681 254.833,210.593 262.940 C 210.479 273.337,210.295 277.845,209.967 278.240 C 209.149 279.226,200.151 279.029,199.607 278.013 C 199.317 277.471,199.192 258.296,199.205 216.513 C 199.227 150.032,199.354 153.768,196.959 150.543 C 195.989 149.238,190.602 146.100,187.800 145.208 C 186.920 144.927,185.120 144.227,183.800 143.650 L 181.400 142.602 167.000 142.532 C 159.080 142.493,151.849 142.616,150.931 142.804 M4.400 153.600 C 4.400 154.040,4.580 154.400,4.800 154.400 C 5.020 154.400,5.200 154.040,5.200 153.600 C 5.200 153.160,5.020 152.800,4.800 152.800 C 4.580 152.800,4.400 153.160,4.400 153.600 M398.249 159.500 C 398.625 161.070,398.800 161.123,398.800 159.667 C 398.800 158.970,398.617 158.400,398.392 158.400 C 398.150 158.400,398.092 158.847,398.249 159.500 M398.312 240.179 C 398.034 241.705,398.157 242.377,398.627 241.907 C 398.751 241.782,398.796 240.987,398.727 240.140 L 398.600 238.600 398.312 240.179 M4.400 246.400 C 4.400 246.840,4.580 247.200,4.800 247.200 C 5.020 247.200,5.200 246.840,5.200 246.400 C 5.200 245.960,5.020 245.600,4.800 245.600 C 4.580 245.600,4.400 245.960,4.400 246.400 M393.301 260.600 C 393.305 261.480,393.387 261.793,393.483 261.295 C 393.579 260.798,393.575 260.078,393.475 259.695 C 393.375 259.313,393.296 259.720,393.301 260.600 M9.600 266.879 C 9.600 267.349,9.735 267.570,9.900 267.371 C 10.065 267.172,10.350 266.897,10.534 266.760 C 10.717 266.623,10.582 266.402,10.234 266.268 C 9.777 266.093,9.600 266.264,9.600 266.879 M376.893 296.800 C 376.893 297.570,376.975 297.885,377.076 297.500 C 377.176 297.115,377.176 296.485,377.076 296.100 C 376.975 295.715,376.893 296.030,376.893 296.800 M307.402 369.998 C 307.003 370.439,306.807 370.800,306.967 370.800 C 307.388 370.800,308.528 369.595,308.312 369.379 C 308.211 369.278,307.802 369.556,307.402 369.998 M268.176 389.787 C 267.419 390.360,267.423 390.375,268.300 390.387 C 268.839 390.395,269.200 390.159,269.200 389.800 C 269.200 389.059,269.141 389.058,268.176 389.787 M143.300 393.487 C 143.905 393.578,144.895 393.578,145.500 393.487 C 146.105 393.395,145.610 393.320,144.400 393.320 C 143.190 393.320,142.695 393.395,143.300 393.487 M254.900 393.491 C 255.725 393.578,257.075 393.578,257.900 393.491 C 258.725 393.405,258.050 393.334,256.400 393.334 C 254.750 393.334,254.075 393.405,254.900 393.491 M150.400 395.037 C 150.400 395.374,150.811 395.600,151.424 395.600 C 152.577 395.600,152.436 395.007,151.206 394.686 C 150.680 394.548,150.400 394.670,150.400 395.037 M168.406 398.100 C 168.402 398.570,168.695 398.790,169.300 398.768 C 169.901 398.747,170.001 398.661,169.600 398.508 C 169.270 398.383,168.868 398.082,168.706 397.840 C 168.525 397.569,168.410 397.668,168.406 398.100 " stroke="none" fill="#fbe6e7" fill-rule="evenodd"></path><path id="path2" d="M237.800 90.423 C 224.244 93.299,217.406 104.224,215.356 126.287 C 215.017 129.928,214.536 129.757,224.915 129.673 C 234.905 129.592,234.202 129.762,234.948 127.251 C 237.603 118.310,244.049 115.481,253.312 119.190 C 254.974 119.856,256.573 120.400,256.867 120.400 C 257.160 120.400,258.390 120.933,259.600 121.584 C 260.810 122.235,262.097 122.775,262.459 122.784 C 262.822 122.793,264.112 123.322,265.325 123.961 C 266.539 124.599,268.132 125.245,268.866 125.396 C 269.600 125.548,271.370 126.186,272.800 126.816 C 280.402 130.163,294.898 130.192,298.556 126.867 C 299.020 126.445,299.839 125.873,300.375 125.596 C 306.210 122.578,312.849 109.337,314.410 97.600 C 314.658 95.730,314.956 93.480,315.072 92.599 C 315.460 89.639,315.100 89.537,304.809 89.678 L 295.929 89.800 294.965 90.922 C 294.434 91.540,293.998 92.530,293.996 93.122 C 293.971 100.127,285.027 104.025,276.802 100.615 C 275.591 100.113,273.880 99.474,273.000 99.196 C 272.120 98.918,270.680 98.368,269.800 97.975 C 267.992 97.168,264.338 95.660,260.200 94.014 C 258.660 93.401,256.723 92.604,255.895 92.243 C 250.426 89.853,243.683 89.175,237.800 90.423 M274.339 143.225 C 272.259 143.407,270.105 143.871,268.939 144.388 C 267.873 144.861,265.688 145.500,264.085 145.808 C 262.481 146.115,260.681 146.707,260.085 147.122 C 259.488 147.538,258.416 148.076,257.702 148.317 C 256.464 148.737,251.871 151.793,250.225 153.294 C 249.798 153.682,249.309 154.000,249.137 154.000 C 248.716 154.000,245.639 158.148,244.400 160.386 C 241.197 166.173,235.538 163.637,234.446 155.924 C 234.243 154.492,233.725 152.618,233.294 151.760 C 232.864 150.902,232.413 149.428,232.292 148.484 C 231.900 145.424,232.937 145.599,215.251 145.612 L 199.400 145.623 198.088 146.816 C 196.447 148.309,196.512 148.450,201.099 153.349 C 206.011 158.595,211.200 166.436,211.200 168.612 C 211.200 168.906,211.638 170.194,212.172 171.474 C 213.036 173.540,214.892 181.824,215.338 185.600 C 215.429 186.370,215.441 185.560,215.365 183.800 C 215.288 182.040,215.053 179.340,214.842 177.800 C 214.631 176.260,214.415 174.010,214.363 172.800 C 214.304 171.455,213.982 170.188,213.533 169.538 C 212.538 168.097,212.570 166.800,213.600 166.800 C 214.040 166.800,214.400 166.980,214.400 167.200 C 214.400 167.465,232.517 167.600,267.951 167.600 C 310.431 167.600,321.588 167.704,321.919 168.102 C 322.148 168.378,322.455 169.081,322.602 169.664 C 322.849 170.648,324.064 171.402,324.577 170.890 C 325.236 170.230,324.751 166.803,323.846 165.727 C 323.321 165.104,322.592 163.877,322.227 163.002 C 321.861 162.127,321.231 161.048,320.828 160.605 C 320.424 160.162,319.821 159.260,319.488 158.600 C 317.922 155.497,312.475 150.896,307.630 148.584 C 306.437 148.014,305.044 147.220,304.534 146.819 C 304.024 146.418,302.930 145.969,302.103 145.820 C 301.277 145.671,298.930 145.020,296.889 144.373 C 292.814 143.081,282.185 142.540,274.339 143.225 M325.637 173.898 C 325.190 174.377,325.186 174.746,325.613 176.038 C 326.305 178.137,327.200 178.100,327.200 175.971 C 327.200 174.006,326.457 173.021,325.637 173.898 M271.700 175.084 C 271.205 175.178,270.800 175.493,270.800 175.783 C 270.800 176.387,273.168 176.941,274.146 176.565 C 274.948 176.257,275.015 175.200,274.233 175.200 C 273.921 175.200,273.426 175.135,273.133 175.056 C 272.840 174.977,272.195 174.990,271.700 175.084 M258.400 175.800 C 258.400 176.254,258.892 176.400,260.429 176.400 C 261.698 176.400,262.682 176.176,263.057 175.800 C 263.590 175.267,263.365 175.200,261.029 175.200 C 258.959 175.200,258.400 175.328,258.400 175.800 " stroke="none" fill="#fca706" fill-rule="evenodd"></path><path id="path3" d="M303.400 87.969 C 293.257 88.235,293.868 88.031,292.809 91.516 C 291.029 97.380,288.520 100.000,284.686 100.000 C 282.461 100.000,274.412 98.072,273.000 97.201 C 272.340 96.794,270.900 96.243,269.800 95.977 C 268.700 95.712,266.878 94.978,265.751 94.347 C 264.625 93.716,263.440 93.200,263.119 93.200 C 262.798 93.200,261.660 92.757,260.591 92.215 C 259.521 91.674,256.488 90.488,253.850 89.581 L 249.054 87.931 243.027 88.090 C 231.151 88.402,223.472 93.487,218.276 104.479 C 215.095 111.207,212.077 126.398,213.228 129.886 C 213.842 131.746,215.240 131.996,225.000 131.992 C 235.548 131.987,235.871 131.811,238.206 124.781 C 240.121 119.016,248.004 118.185,257.191 122.781 C 257.966 123.169,259.140 123.617,259.800 123.776 C 260.460 123.935,262.249 124.681,263.776 125.433 C 265.303 126.185,266.794 126.800,267.089 126.800 C 267.385 126.800,268.517 127.251,269.605 127.802 C 270.693 128.354,272.532 129.006,273.691 129.252 C 274.851 129.497,276.486 130.046,277.325 130.470 C 280.479 132.066,289.569 132.331,293.400 130.938 C 294.280 130.618,295.943 130.016,297.096 129.601 C 306.770 126.115,314.070 113.695,316.630 96.367 C 317.953 87.407,318.225 87.579,303.400 87.969 M250.295 90.593 C 252.548 91.139,255.068 91.881,255.895 92.243 C 256.723 92.604,258.660 93.401,260.200 94.014 C 264.338 95.660,267.992 97.168,269.800 97.975 C 270.680 98.368,272.120 98.918,273.000 99.196 C 273.880 99.474,275.591 100.113,276.802 100.615 C 285.027 104.025,293.971 100.127,293.996 93.122 C 293.998 92.530,294.434 91.540,294.965 90.922 L 295.929 89.800 304.809 89.678 C 315.100 89.537,315.460 89.639,315.072 92.599 C 314.956 93.480,314.658 95.730,314.410 97.600 C 312.849 109.337,306.210 122.578,300.375 125.596 C 299.839 125.873,299.020 126.445,298.556 126.867 C 294.898 130.192,280.402 130.163,272.800 126.816 C 271.370 126.186,269.600 125.548,268.866 125.396 C 268.132 125.245,266.539 124.599,265.325 123.961 C 264.112 123.322,262.822 122.793,262.459 122.784 C 262.097 122.775,260.810 122.235,259.600 121.584 C 258.390 120.933,257.160 120.400,256.867 120.400 C 256.573 120.400,254.974 119.856,253.312 119.190 C 244.049 115.481,237.603 118.310,234.948 127.251 C 234.202 129.762,234.905 129.592,224.915 129.673 C 214.536 129.757,215.017 129.928,215.356 126.287 C 217.933 98.559,230.439 85.783,250.295 90.593 M276.278 140.844 C 275.881 141.076,273.901 141.425,271.878 141.621 C 264.779 142.308,257.399 145.139,250.800 149.706 C 248.721 151.145,243.704 156.242,243.389 157.235 C 242.941 158.647,240.079 160.196,239.270 159.464 C 238.559 158.820,236.438 153.697,235.601 150.600 C 233.450 142.641,233.829 142.778,214.254 142.899 L 197.908 143.000 196.553 144.568 C 194.524 146.915,196.284 148.852,198.400 146.600 L 199.339 145.600 215.221 145.600 C 232.939 145.600,231.900 145.424,232.292 148.484 C 232.413 149.428,232.864 150.902,233.294 151.760 C 233.725 152.618,234.243 154.492,234.446 155.924 C 235.538 163.637,241.197 166.173,244.400 160.386 C 245.639 158.148,248.716 154.000,249.137 154.000 C 249.309 154.000,249.798 153.682,250.225 153.294 C 251.871 151.793,256.464 148.737,257.702 148.317 C 258.416 148.076,259.488 147.538,260.085 147.122 C 260.681 146.707,262.481 146.115,264.085 145.808 C 265.688 145.500,267.851 144.871,268.891 144.409 C 273.400 142.410,290.619 142.385,296.877 144.369 C 298.925 145.018,301.277 145.671,302.103 145.820 C 302.930 145.969,304.024 146.418,304.534 146.819 C 305.044 147.220,306.437 148.014,307.630 148.584 C 312.475 150.896,317.922 155.497,319.488 158.600 C 319.821 159.260,320.424 160.162,320.828 160.605 C 321.231 161.048,321.861 162.127,322.227 163.002 C 322.592 163.877,323.321 165.104,323.846 165.727 C 324.751 166.803,325.236 170.230,324.577 170.890 C 324.064 171.402,322.849 170.648,322.602 169.664 C 322.455 169.081,322.148 168.378,321.919 168.102 C 321.588 167.704,310.431 167.600,267.951 167.600 C 232.517 167.600,214.400 167.465,214.400 167.200 C 214.400 166.980,214.040 166.800,213.600 166.800 C 212.569 166.800,212.538 168.099,213.536 169.538 C 213.989 170.193,214.307 171.444,214.364 172.800 C 214.415 174.010,214.639 176.170,214.863 177.600 C 215.311 180.467,215.879 223.169,215.953 259.515 L 216.000 282.831 229.380 282.715 C 238.863 282.634,242.896 282.465,243.225 282.136 C 243.713 281.647,243.724 281.128,244.205 236.200 C 244.344 223.220,244.632 211.430,244.846 210.000 C 245.060 208.570,245.496 205.524,245.816 203.231 C 248.030 187.343,254.721 179.800,266.600 179.801 C 271.782 179.801,274.177 180.675,276.941 183.572 C 283.088 190.017,283.460 192.876,283.817 236.400 C 283.967 254.770,284.115 272.346,284.145 275.458 C 284.225 283.713,281.258 282.800,308.013 282.800 C 326.572 282.800,330.379 282.707,330.764 282.243 C 331.103 281.835,331.326 269.422,331.601 235.743 C 331.998 186.907,331.854 180.082,330.345 176.211 C 329.914 175.105,329.397 173.243,329.197 172.073 C 328.997 170.902,328.383 169.012,327.833 167.873 C 327.283 166.733,326.465 164.990,326.015 164.000 C 325.565 163.010,324.753 161.570,324.209 160.800 C 323.666 160.030,322.721 158.686,322.111 157.813 C 316.415 149.674,305.433 143.087,295.400 141.792 C 292.980 141.480,290.371 141.039,289.603 140.812 C 287.774 140.273,277.217 140.298,276.278 140.844 M327.200 175.971 C 327.200 178.100,326.305 178.137,325.613 176.038 C 325.186 174.746,325.190 174.377,325.637 173.898 C 326.457 173.021,327.200 174.006,327.200 175.971 M274.233 175.200 C 275.015 175.200,274.948 176.257,274.146 176.565 C 273.168 176.941,270.800 176.387,270.800 175.783 C 270.800 175.238,272.195 174.803,273.133 175.056 C 273.426 175.135,273.921 175.200,274.233 175.200 M263.057 175.800 C 262.682 176.176,261.698 176.400,260.429 176.400 C 258.892 176.400,258.400 176.254,258.400 175.800 C 258.400 175.328,258.959 175.200,261.029 175.200 C 263.365 175.200,263.590 175.267,263.057 175.800 " stroke="none" fill="#fb7d05" fill-rule="evenodd"></path><path id="path4" d="M167.900 1.722 C 166.855 1.949,166.000 2.284,166.000 2.467 C 166.000 2.929,167.754 2.886,168.227 2.413 C 168.440 2.200,169.331 1.858,170.207 1.653 C 171.174 1.427,171.407 1.286,170.800 1.295 C 170.250 1.303,168.945 1.496,167.900 1.722 M231.200 1.678 C 232.190 1.894,233.171 2.235,233.380 2.435 C 233.589 2.636,234.210 2.800,234.760 2.800 C 235.364 2.800,235.609 2.658,235.380 2.443 C 234.954 2.042,231.131 1.177,230.080 1.243 C 229.706 1.266,230.210 1.462,231.200 1.678 M151.029 5.009 C 149.866 5.889,150.393 5.944,152.400 5.153 C 154.071 4.495,154.114 4.443,153.000 4.434 C 152.340 4.430,151.453 4.688,151.029 5.009 M249.000 4.983 C 251.418 6.027,252.334 6.147,250.890 5.231 C 250.170 4.774,249.180 4.415,248.690 4.433 C 247.911 4.461,247.950 4.530,249.000 4.983 M142.400 7.131 C 142.400 7.313,142.940 7.382,143.600 7.285 C 144.260 7.188,144.800 7.040,144.800 6.955 C 144.800 6.870,144.260 6.800,143.600 6.800 C 142.940 6.800,142.400 6.949,142.400 7.131 M256.800 6.955 C 256.800 7.040,257.340 7.188,258.000 7.285 C 258.660 7.382,259.200 7.313,259.200 7.131 C 259.200 6.949,258.660 6.800,258.000 6.800 C 257.340 6.800,256.800 6.870,256.800 6.955 M133.556 10.500 C 133.106 11.357,133.120 11.369,133.842 10.752 C 134.259 10.396,134.870 10.005,135.200 9.884 C 135.598 9.737,135.502 9.653,134.914 9.632 C 134.380 9.613,133.840 9.958,133.556 10.500 M267.300 10.263 C 268.125 10.606,268.800 11.027,268.800 11.200 C 268.800 11.373,269.115 11.625,269.500 11.760 C 269.885 11.895,269.612 11.465,268.894 10.803 C 268.175 10.141,267.185 9.609,266.694 9.621 C 266.009 9.636,266.151 9.787,267.300 10.263 M125.944 13.166 C 125.425 13.587,125.090 14.021,125.200 14.132 C 125.310 14.242,125.905 13.897,126.522 13.366 C 127.845 12.228,127.324 12.047,125.944 13.166 M280.700 15.933 C 281.520 16.792,281.717 16.769,281.367 15.857 C 281.228 15.496,280.864 15.200,280.557 15.200 C 280.133 15.200,280.167 15.375,280.700 15.933 M287.400 19.200 C 287.798 19.640,288.304 20.000,288.524 20.000 C 288.744 20.000,288.598 19.640,288.200 19.200 C 287.802 18.760,287.296 18.400,287.076 18.400 C 286.856 18.400,287.002 18.760,287.400 19.200 M99.037 27.000 C 98.676 27.550,98.468 28.000,98.573 28.000 C 98.678 28.000,99.214 27.550,99.764 27.000 C 100.368 26.395,100.552 26.000,100.228 26.000 C 99.933 26.000,99.397 26.450,99.037 27.000 M307.170 30.145 C 307.703 30.725,308.220 31.200,308.319 31.200 C 308.713 31.200,307.293 29.432,306.766 29.267 C 306.455 29.170,306.636 29.565,307.170 30.145 M89.992 32.210 C 89.219 33.141,89.771 33.317,90.598 32.402 C 90.997 31.961,91.138 31.600,90.911 31.600 C 90.684 31.600,90.270 31.874,89.992 32.210 M82.095 37.466 C 81.818 37.578,81.388 38.059,81.141 38.535 C 80.725 39.336,80.777 39.326,81.846 38.400 C 82.481 37.850,83.075 37.355,83.167 37.300 C 83.459 37.125,82.620 37.255,82.095 37.466 M322.800 40.786 C 322.800 40.998,323.205 41.384,323.700 41.644 C 324.595 42.114,324.596 42.112,323.838 41.258 C 322.991 40.305,322.800 40.218,322.800 40.786 M324.800 42.115 C 324.800 42.189,325.340 42.649,326.000 43.137 C 326.660 43.625,327.200 43.843,327.200 43.622 C 327.200 43.401,326.660 42.941,326.000 42.600 C 325.340 42.259,324.800 42.040,324.800 42.115 M70.837 46.642 C 70.307 47.169,70.050 47.600,70.267 47.600 C 70.483 47.600,71.083 47.150,71.600 46.600 C 72.796 45.327,72.122 45.364,70.837 46.642 M13.021 126.535 C 12.619 126.829,12.360 127.262,12.445 127.498 C 12.530 127.733,12.923 127.493,13.319 126.963 C 14.136 125.868,14.068 125.770,13.021 126.535 M389.396 130.042 C 389.833 130.569,390.238 131.075,390.296 131.167 C 390.353 131.258,390.400 131.040,390.400 130.681 C 390.400 130.322,389.995 129.816,389.500 129.556 L 388.600 129.084 389.396 130.042 M10.073 133.687 C 9.813 133.947,9.625 134.709,9.654 135.380 C 9.703 136.472,9.728 136.495,9.893 135.600 C 9.994 135.050,10.265 134.371,10.495 134.090 C 11.045 133.421,10.684 133.076,10.073 133.687 M392.320 137.680 C 392.584 137.944,392.800 138.514,392.800 138.947 C 392.800 139.379,392.912 139.622,393.048 139.485 C 393.442 139.091,392.834 137.200,392.312 137.200 C 391.953 137.200,391.955 137.315,392.320 137.680 M152.555 140.835 C 143.068 141.683,130.433 149.060,125.742 156.492 C 123.884 159.435,122.490 158.579,120.992 153.574 C 119.537 148.713,117.547 144.056,116.460 142.969 C 115.075 141.584,114.545 141.550,96.542 141.681 C 78.102 141.814,78.858 141.689,78.004 144.760 C 77.233 147.536,77.473 281.012,78.252 282.653 C 79.308 284.877,78.678 284.827,103.782 284.709 L 127.182 284.600 128.291 283.491 L 129.400 282.382 129.639 243.691 C 129.885 203.969,129.976 201.751,131.537 197.730 C 131.949 196.668,132.408 195.008,132.558 194.039 C 133.851 185.647,144.363 179.234,153.656 181.169 C 159.279 182.339,163.286 187.793,164.016 195.271 C 164.227 197.432,164.581 201.045,164.803 203.300 C 165.042 205.737,165.200 222.456,165.191 244.518 C 165.175 285.620,165.030 283.336,167.715 284.448 C 169.687 285.264,212.769 284.593,214.606 283.716 L 216.000 283.052 215.961 259.626 C 215.939 246.742,215.774 224.410,215.595 210.000 L 215.268 183.800 214.082 178.400 C 213.430 175.430,212.515 172.130,212.048 171.067 C 211.582 170.004,211.200 168.896,211.200 168.605 C 211.200 166.485,205.978 158.543,201.355 153.632 C 199.620 151.788,197.660 149.467,197.000 148.473 C 196.340 147.479,195.530 146.538,195.200 146.381 C 186.063 142.027,184.013 141.313,179.250 140.824 C 174.541 140.341,158.014 140.348,152.555 140.835 M7.267 143.193 C 6.977 143.850,6.822 144.705,6.923 145.093 C 7.076 145.681,7.115 145.661,7.154 144.976 C 7.179 144.524,7.464 143.804,7.787 143.376 C 8.440 142.514,8.556 142.000,8.098 142.000 C 7.931 142.000,7.558 142.537,7.267 143.193 M183.800 143.650 C 185.120 144.227,186.920 144.927,187.800 145.208 C 190.602 146.100,195.989 149.238,196.959 150.543 C 199.354 153.768,199.227 150.032,199.205 216.513 C 199.192 258.296,199.317 277.471,199.607 278.013 C 200.151 279.029,209.149 279.226,209.967 278.240 C 210.295 277.845,210.479 273.337,210.593 262.940 C 210.681 254.833,210.901 246.400,211.081 244.200 L 211.407 240.200 211.730 247.800 C 211.907 251.980,212.112 260.530,212.185 266.800 C 212.263 273.456,212.493 278.645,212.738 279.269 C 213.439 281.059,212.767 281.236,205.744 281.112 C 200.064 281.012,199.232 281.084,197.800 281.800 C 195.581 282.910,169.790 283.278,168.179 282.223 L 167.225 281.598 167.095 240.099 L 166.966 198.600 165.711 193.595 C 164.241 187.732,162.590 184.639,159.594 182.133 C 152.835 176.482,139.319 178.628,134.507 186.117 C 133.913 187.043,133.022 188.300,132.529 188.912 C 132.036 189.523,131.509 190.693,131.359 191.512 C 131.209 192.330,130.656 193.981,130.129 195.181 C 127.794 200.503,127.200 211.268,127.200 248.256 L 127.200 281.142 126.146 281.971 C 124.712 283.099,82.080 283.292,80.489 282.177 L 79.600 281.555 79.600 213.666 C 79.600 152.869,79.665 145.685,80.223 144.889 L 80.845 144.000 97.463 144.000 L 114.080 144.000 115.367 145.300 C 116.382 146.325,117.064 147.853,118.589 152.524 C 121.505 161.457,123.412 162.713,126.739 157.894 C 130.270 152.779,138.716 146.676,144.600 144.988 C 145.920 144.610,147.509 144.041,148.131 143.724 C 150.310 142.614,152.715 142.462,167.000 142.532 L 181.400 142.602 183.800 143.650 M394.935 146.841 C 395.248 147.678,395.444 147.866,395.534 147.418 C 395.704 146.571,395.338 145.600,394.847 145.600 C 394.629 145.600,394.666 146.124,394.935 146.841 M5.200 153.567 C 5.200 153.988,4.993 154.402,4.740 154.487 C 4.487 154.571,4.368 154.901,4.476 155.220 C 4.608 155.614,4.884 155.389,5.336 154.520 C 6.108 153.031,6.144 152.800,5.600 152.800 C 5.380 152.800,5.200 153.145,5.200 153.567 M397.200 158.320 C 397.200 158.716,397.369 159.211,397.576 159.420 C 397.783 159.629,398.123 160.700,398.331 161.800 C 398.560 163.007,398.728 163.376,398.755 162.731 C 398.816 161.272,397.940 157.600,397.531 157.600 C 397.349 157.600,397.200 157.924,397.200 158.320 M1.590 169.826 C 1.376 170.390,1.218 171.245,1.241 171.726 C 1.269 172.333,1.376 172.203,1.590 171.302 C 1.759 170.589,2.123 169.734,2.398 169.402 C 2.754 168.973,2.766 168.800,2.439 168.800 C 2.187 168.800,1.805 169.262,1.590 169.826 M399.714 175.000 C 399.717 176.100,399.795 176.503,399.887 175.895 C 399.979 175.286,399.977 174.386,399.882 173.895 C 399.787 173.403,399.711 173.900,399.714 175.000 M399.724 225.400 C 399.726 226.720,399.801 227.212,399.890 226.493 C 399.979 225.774,399.977 224.694,399.886 224.093 C 399.795 223.492,399.722 224.080,399.724 225.400 M1.246 228.200 C 1.194 229.389,1.641 230.800,2.070 230.800 C 2.278 230.800,2.318 230.591,2.160 230.335 C 2.002 230.079,1.739 229.314,1.577 228.635 C 1.399 227.889,1.268 227.717,1.246 228.200 M398.059 238.510 C 397.177 242.231,397.103 242.800,397.498 242.800 C 397.894 242.800,399.065 236.932,398.735 236.602 C 398.635 236.502,398.331 237.361,398.059 238.510 M4.400 245.000 C 4.400 245.330,4.580 245.600,4.800 245.600 C 5.020 245.600,5.200 245.960,5.200 246.400 C 5.200 246.840,5.380 247.200,5.600 247.200 C 6.137 247.200,6.107 246.967,5.390 245.580 C 4.715 244.275,4.400 244.090,4.400 245.000 M394.893 253.355 C 394.595 254.011,394.568 254.400,394.821 254.400 C 395.308 254.400,395.735 253.406,395.523 252.768 C 395.439 252.516,395.155 252.780,394.893 253.355 M6.836 255.276 C 6.816 255.868,6.980 256.464,7.200 256.600 C 7.420 256.736,7.600 257.197,7.600 257.624 C 7.600 258.051,7.780 258.400,8.000 258.400 C 8.516 258.400,8.521 257.322,8.006 257.004 C 7.790 256.870,7.446 256.184,7.242 255.480 C 6.884 254.242,6.871 254.235,6.836 255.276 M393.293 258.000 C 393.293 258.770,393.375 259.085,393.476 258.700 C 393.576 258.315,393.576 257.685,393.476 257.300 C 393.375 256.915,393.293 257.230,393.293 258.000 M392.517 261.615 C 392.271 262.267,392.230 262.800,392.427 262.800 C 392.804 262.800,393.415 260.882,393.130 260.597 C 393.039 260.505,392.763 260.964,392.517 261.615 M9.660 264.554 C 9.620 265.324,9.933 266.017,10.600 266.635 C 11.150 267.145,11.600 267.418,11.600 267.243 C 11.600 267.067,11.250 266.607,10.823 266.220 C 10.395 265.833,9.972 265.041,9.882 264.458 C 9.721 263.405,9.720 263.405,9.660 264.554 M389.451 269.853 C 388.705 270.877,388.705 270.879,389.551 270.426 C 390.018 270.176,390.400 269.708,390.400 269.386 C 390.400 268.612,390.331 268.646,389.451 269.853 M44.844 326.400 C 44.823 327.078,45.723 328.400,46.206 328.400 C 46.381 328.400,46.250 328.085,45.914 327.700 C 45.579 327.315,45.205 326.730,45.084 326.400 C 44.888 325.867,44.861 325.867,44.844 326.400 M67.081 350.187 C 67.477 350.731,67.966 351.181,68.170 351.187 C 68.373 351.194,68.117 350.750,67.600 350.200 C 66.401 348.923,66.157 348.918,67.081 350.187 M71.547 353.800 C 72.400 354.570,73.211 355.200,73.350 355.200 C 73.489 355.200,72.905 354.570,72.053 353.800 C 71.200 353.030,70.389 352.400,70.250 352.400 C 70.111 352.400,70.695 353.030,71.547 353.800 M322.600 359.200 C 321.968 359.860,321.542 360.400,321.653 360.400 C 321.765 360.400,322.461 359.860,323.200 359.200 C 323.939 358.540,324.365 358.000,324.147 358.000 C 323.928 358.000,323.232 358.540,322.600 359.200 M81.600 361.367 C 81.600 361.788,82.805 362.928,83.021 362.712 C 83.122 362.611,82.844 362.202,82.402 361.802 C 81.961 361.403,81.600 361.207,81.600 361.367 M88.800 366.125 C 88.800 366.194,89.385 366.779,90.100 367.425 L 91.400 368.600 90.225 367.300 C 89.130 366.088,88.800 365.816,88.800 366.125 M287.400 380.800 C 287.002 381.240,286.856 381.600,287.076 381.600 C 287.296 381.600,287.802 381.240,288.200 380.800 C 288.598 380.360,288.744 380.000,288.524 380.000 C 288.304 380.000,287.798 380.360,287.400 380.800 M280.818 383.966 C 280.573 384.425,280.539 384.800,280.743 384.800 C 281.154 384.800,281.722 383.588,281.442 383.308 C 281.344 383.211,281.064 383.507,280.818 383.966 M125.200 385.932 C 125.200 386.451,126.296 387.304,126.750 387.138 C 126.957 387.062,126.693 386.677,126.163 386.281 C 125.633 385.886,125.200 385.729,125.200 385.932 M270.900 387.876 C 271.285 387.976,271.915 387.976,272.300 387.876 C 272.685 387.775,272.370 387.693,271.600 387.693 C 270.830 387.693,270.515 387.775,270.900 387.876 M268.697 388.848 C 268.091 389.300,267.101 389.819,266.497 390.001 L 265.400 390.331 266.415 390.366 C 266.999 390.385,268.018 389.898,268.815 389.216 C 270.405 387.858,270.331 387.629,268.697 388.848 M133.200 389.132 C 133.200 389.651,134.296 390.504,134.750 390.338 C 134.957 390.262,134.693 389.877,134.163 389.481 C 133.633 389.086,133.200 388.929,133.200 389.132 M141.600 392.108 C 141.600 392.825,142.456 393.213,143.933 393.166 L 145.000 393.131 143.874 392.793 C 143.255 392.608,142.490 392.241,142.174 391.979 C 141.718 391.600,141.600 391.627,141.600 392.108 M259.773 391.975 C 259.568 392.174,258.770 392.515,258.000 392.733 L 256.600 393.128 257.824 393.164 C 259.033 393.200,260.810 392.276,260.373 391.839 C 260.248 391.715,259.979 391.776,259.773 391.975 M150.400 394.128 C 150.400 394.533,152.926 395.600,153.885 395.600 C 155.252 395.600,154.662 394.924,153.104 394.705 C 152.387 394.604,151.485 394.385,151.100 394.218 C 150.715 394.051,150.400 394.010,150.400 394.128 M248.400 394.847 C 246.729 395.505,246.686 395.557,247.800 395.566 C 248.460 395.570,249.347 395.312,249.771 394.991 C 250.934 394.111,250.407 394.056,248.400 394.847 M168.666 397.827 C 168.890 398.411,171.465 399.068,171.885 398.648 C 172.022 398.512,171.788 398.399,171.367 398.398 C 170.945 398.396,170.117 398.143,169.527 397.835 C 168.622 397.363,168.487 397.362,168.666 397.827 M232.595 397.554 C 232.378 397.765,231.570 398.130,230.800 398.366 C 229.415 398.791,229.419 398.793,231.185 398.579 C 233.164 398.340,233.349 398.248,233.137 397.610 C 233.043 397.328,232.848 397.308,232.595 397.554 " stroke="none" fill="#ef796f" fill-rule="evenodd"></path></g></svg>